<mxfile host="app.diagrams.net" modified="2023-02-09T14:34:29.928Z" agent="5.0 (Windows NT 10.0; Win64; x64) AppleWebKit/537.36 (KHTML, like Gecko) Chrome/109.0.0.0 Safari/537.36 Edg/109.0.1518.78" etag="zzmbvXYXDxwImNGfHF-I" version="20.8.19" type="github">
  <diagram name="第 1 页" id="nof6VDl_TIA3hBYxni-W">
    <mxGraphModel dx="977" dy="539" grid="1" gridSize="10" guides="1" tooltips="1" connect="1" arrows="1" fold="1" page="1" pageScale="1" pageWidth="827" pageHeight="1169" math="0" shadow="0">
      <root>
        <mxCell id="0" />
        <mxCell id="1" parent="0" />
        <mxCell id="BvJcDFQhH8Mvir9yOmJn-4" style="edgeStyle=orthogonalEdgeStyle;rounded=0;hachureGap=4;orthogonalLoop=1;jettySize=auto;html=1;entryX=0;entryY=0.5;entryDx=0;entryDy=0;fontFamily=Architects Daughter;fontSource=https%3A%2F%2Ffonts.googleapis.com%2Fcss%3Ffamily%3DArchitects%2BDaughter;fontSize=12;verticalAlign=middle;fillColor=#f5f5f5;strokeColor=#666666;" edge="1" parent="1" source="BvJcDFQhH8Mvir9yOmJn-1" target="BvJcDFQhH8Mvir9yOmJn-2">
          <mxGeometry relative="1" as="geometry" />
        </mxCell>
        <mxCell id="BvJcDFQhH8Mvir9yOmJn-1" value="&lt;font style=&quot;font-size: 12px;&quot;&gt;本地方法&lt;/font&gt;" style="rounded=0;whiteSpace=wrap;html=1;hachureGap=4;fontFamily=Architects Daughter;fontSource=https%3A%2F%2Ffonts.googleapis.com%2Fcss%3Ffamily%3DArchitects%2BDaughter;fontSize=12;verticalAlign=middle;fillColor=#f5f5f5;fontColor=#333333;strokeColor=#666666;" vertex="1" parent="1">
          <mxGeometry x="240" y="140" width="120" height="60" as="geometry" />
        </mxCell>
        <mxCell id="BvJcDFQhH8Mvir9yOmJn-2" value="第三方接口" style="rounded=0;whiteSpace=wrap;html=1;hachureGap=4;fontFamily=Architects Daughter;fontSource=https%3A%2F%2Ffonts.googleapis.com%2Fcss%3Ffamily%3DArchitects%2BDaughter;fontSize=12;verticalAlign=middle;fillColor=#f5f5f5;fontColor=#333333;strokeColor=#666666;" vertex="1" parent="1">
          <mxGeometry x="440" y="140" width="120" height="60" as="geometry" />
        </mxCell>
        <mxCell id="BvJcDFQhH8Mvir9yOmJn-6" style="edgeStyle=orthogonalEdgeStyle;rounded=0;sketch=0;hachureGap=4;jiggle=2;curveFitting=1;orthogonalLoop=1;jettySize=auto;html=1;entryX=0;entryY=0.5;entryDx=0;entryDy=0;fontFamily=Architects Daughter;fontSource=https%3A%2F%2Ffonts.googleapis.com%2Fcss%3Ffamily%3DArchitects%2BDaughter;fontSize=12;fillColor=#f5f5f5;strokeColor=#666666;" edge="1" parent="1" source="BvJcDFQhH8Mvir9yOmJn-5" target="BvJcDFQhH8Mvir9yOmJn-1">
          <mxGeometry relative="1" as="geometry" />
        </mxCell>
        <mxCell id="BvJcDFQhH8Mvir9yOmJn-5" value="&lt;font style=&quot;font-size: 12px;&quot;&gt;处理数据服务&lt;/font&gt;" style="rounded=0;whiteSpace=wrap;html=1;hachureGap=4;fontFamily=Architects Daughter;fontSource=https%3A%2F%2Ffonts.googleapis.com%2Fcss%3Ffamily%3DArchitects%2BDaughter;fontSize=12;verticalAlign=middle;fillColor=#f5f5f5;fontColor=#333333;strokeColor=#666666;" vertex="1" parent="1">
          <mxGeometry x="40" y="140" width="120" height="60" as="geometry" />
        </mxCell>
      </root>
    </mxGraphModel>
  </diagram>
</mxfile>
